<svg xmlns="http://www.w3.org/2000/svg" version="1.1" xmlns:xlink="http://www.w3.org/1999/xlink" xmlns:svgjs="http://svgjs.dev/svgjs" width="100%" height="100%" viewBox="0 0 1000 600"><rect width="1000" height="600" x="0" y="0" fill="#f4efea"/><g><rect width="333.3333333333333" height="333.3333333333333" y="112.76596297566473" fill="#7d141d" transform="matrix(1.3805483567733323,0,0,1.3805483567733323,0,-85.77025049633309)" x="90.54373168945311"/><path d="M257.6639142618088 354.4326165465767L257.6639142618088 354.4326165465767Q247.925151552899 354.4326165465767 238.5897695479085 352.7614679160538Q229.25438754291804 351.11913219295354 221.24439927937684 348.00733819129005Q213.26322392325844 344.89554418962666 206.8379455679718 340.11260155744014L206.8379455679718 340.11260155744014Q204.36003552961014 338.23976257495747 203.40920958465742 335.84829125886426Q202.48719654712747 333.48563285019384 203.00582888073805 331.09416153410064Q203.52446121434863 328.7026902180073 205.08035821518038 327.0315415874844Q206.63625521601213 325.38920586438417 208.91247490241412 325.1875155124245Q211.1886945888161 324.9570122530421 213.8971078865603 326.628160883565L213.8971078865603 326.628160883565Q223.23248989155076 333.2551295908113 233.80682691572204 336.28048487020635Q244.38116393989336 339.27702724217863 257.6639142618088 339.27702724217863L257.6639142618088 339.27702724217863Q276.3346782717897 339.27702724217863 285.3531182951293 332.33311655328146Q294.37155831846883 325.38920586438417 294.37155831846883 313.97929452495134L294.37155831846883 313.97929452495134Q294.37155831846883 304.64391251996096 287.85984124091374 299.3423375541639Q281.3193112559359 294.06957549578965 265.96203159957815 290.95778149412615L265.96203159957815 290.95778149412615L244.38116393989336 286.57821956585894Q224.87482561465092 282.4291608969744 215.25131453543233 273.00734016971546Q205.59899054879097 263.55670653503375 205.59899054879097 247.79604617475664L205.59899054879097 247.79604617475664Q205.59899054879097 238.05728346584684 209.54635886571594 230.0472952023056Q213.46491427521812 222.0661198461872 220.5240765938066 216.36116417647082Q227.58323891239507 210.65620850675444 237.32200162130488 207.54441450509094Q247.08957723763749 204.43262050342744 258.90286928098965 204.43262050342744L258.90286928098965 204.43262050342744Q271.9839292509454 204.43262050342744 283.278588960687 208.06304683870152Q294.6020615778514 211.6934731739756 303.7069403234593 218.95432584452374L303.7069403234593 218.95432584452374Q306.0119729172842 220.82716482700638 306.8187343251228 223.21863614309962Q307.65430864038433 225.61010745919285 307.04923758450525 227.77107551590362Q306.4153536212035 229.9608564800372 304.8594566203717 231.4015018511777Q303.30355961954 232.870960129741 300.9120883034467 233.07265048170066Q298.5206169873535 233.27434083366035 295.63932624507254 231.4015018511777L295.63932624507254 231.4015018511777Q287.3412089073032 225.1779138478507 278.40920760623203 222.38306182783813Q269.47720630516096 219.58820980782556 258.70117892903 219.58820980782556L258.70117892903 219.58820980782556Q247.6946482935165 219.58820980782556 239.7134729373981 222.90169416144872Q231.7322975812797 226.21517851507187 227.26629693074415 232.55401814809008Q222.80029628020858 238.86404487368551 222.80029628020858 247.16216221145478L222.80029628020858 247.16216221145478Q222.80029628020858 257.1314281797471 228.93744556126714 262.9516354791547Q235.0457819349029 268.7430298711396 248.96241622012013 271.45144316888366L248.96241622012013 271.45144316888366L270.5144709723821 276.00388254168774Q291.4902675761879 280.35463156253206 301.54597226674855 289.1713812339119Q311.60167695730934 297.98813090529177 311.60167695730934 313.14372020968995L311.60167695730934 313.14372020968995Q311.60167695730934 322.27741186272067 307.855998992344 329.94164523718814Q304.1391339348015 337.6346915190785 297.079971616213 343.1091439294124Q290.0208092976245 348.6124092471691 280.08035623675505 351.52251289687297Q270.1110902684628 354.4326165465767 257.6639142618088 354.4326165465767Z " fill="#f4efea" transform="matrix(1.3805483567733323,0,0,1.3805483567733323,0,-85.77025049633309)"/><path d="M557.8605180347352 354.43262475777476L516.7848665582947 354.43262475777476Q512.1158356710446 354.43262475777476 509.6631169138183 351.97990600054845Q507.210398156592 349.52718724332215 507.210398156592 344.8581563560721L507.210398156592 344.8581563560721L507.210398156592 214.00708819946902Q507.210398156592 209.33805731221895 509.6631169138183 206.88533855499267Q512.1158356710446 204.43261979776636 516.7848665582947 204.43261979776636L516.7848665582947 204.43261979776636L557.8605180347352 204.43261979776636Q594.2375877955253 204.43261979776636 614.0366428237376 223.58155660117168Q633.8061470235496 242.73049340457706 633.8061470235496 279.31441896416925L633.8061470235496 279.31441896416925Q633.8061470235496 297.63593257236573 628.8120570238959 311.55437274891506Q623.8179670242425 325.50236375386453 614.0366428237376 335.0768321555672Q604.2553186232326 344.6513005572699 590.1891243046819 349.52718724332215Q576.1524808145314 354.43262475777476 557.8605180347352 354.43262475777476L557.8605180347352 354.43262475777476ZM524.6749377411793 219.32623731152606L524.6749377411793 339.5390072440151L556.5898324135214 339.5390072440151Q571.4834499272813 339.5390072440151 582.4468072637987 335.69739955197383Q593.3806137719162 331.885342688333 600.738770043595 324.4385339314532Q608.0673754868735 316.9917251745733 611.7021273801124 305.6146562404514Q615.3073284449513 294.208036477929 615.3073284449513 279.31441896416925L615.3073284449513 279.31441896416925Q615.3073284449513 249.32032813784767 600.6205667299937 234.33805813888702Q585.9338050150361 219.32623731152606 556.5898324135214 219.32623731152606L556.5898324135214 219.32623731152606L524.6749377411793 219.32623731152606Z " fill="#7d141d" transform="matrix(1.3805483567733323,0,0,1.3805483567733323,0,-85.77025049633309)"/></g></svg>